<?xml version="1.0" encoding="UTF-8" standalone="no"?>
<svg viewBox="0 0 36 36" xmlns="http://www.w3.org/2000/svg" id="github">
    <path fill="white" d="m 18.024999,17.915 c 0,0 -0.01667,0 -0.025,0 h -0.025 c -1.985,0 -3.733333,-0.505 -4.768333,0.446667 -0.618333,0.57 -0.878333,1.256666 -0.878333,1.995 0,3.086666 2.471666,3.466666 5.648333,3.466666 h 0.04833 c 3.175,0 5.648334,-0.381666 5.648334,-3.466666 0,-0.738334 -0.26,-1.426667 -0.878334,-1.995 C 21.758333,17.41 20.009999,17.915 18.024999,17.915 Z m -2.703333,4.218333 c -0.605,0 -1.093333,-0.68 -1.093333,-1.516666 0,-0.836667 0.488333,-1.513334 1.093333,-1.513334 0.605,0 1.095,0.676667 1.095,1.513334 0.0017,0.836666 -0.488333,1.516666 -1.095,1.516666 z m 5.355,0 c -0.605,0 -1.095,-0.68 -1.095,-1.516666 0,-0.836667 0.49,-1.513334 1.095,-1.513334 0.603333,0 1.093333,0.676667 1.093333,1.513334 0.0017,0.836666 -0.488333,1.516666 -1.093333,1.516666 z M 17.999999,2 C 9.163333,2 1.9999995,9.163333 1.9999995,18 c 0,8.836667 7.1633335,16 15.9999995,16 C 26.836666,34 34,26.836667 34,18 34,9.163333 26.836666,2 17.999999,2 Z m 1.46,22.565 c -0.286666,0 -0.856666,0 -1.46,0.0033 -0.603333,-0.0033 -1.173333,-0.0033 -1.46,-0.0033 -1.266666,0 -6.286666,-0.09833 -6.286666,-6.148333 0,-1.39 0.476667,-2.408334 1.258333,-3.258334 -0.123333,-0.306666 -0.13,-2.053333 0.533333,-3.726666 0,0 1.526667,0.166666 3.835,1.751666 0.481667,-0.135 1.301667,-0.203333 2.12,-0.203333 0.818334,0 1.636667,0.06833 2.121667,0.201667 2.308333,-1.585 3.835,-1.751667 3.835,-1.751667 0.663333,1.673333 0.658333,3.421667 0.533333,3.726667 0.781667,0.85 1.258334,1.868333 1.258334,3.258333 -0.0017,6.053333 -5.021667,6.15 -6.288334,6.15 z" />
</svg>

