<svg xmlns="http://www.w3.org/2000/svg" viewBox="0 0 36 36"><rect width="36" height="36" fill="#f27521" ry="0"/><path fill="#f0ad00" d="M12.57 9.23v2.346l3.366 3.36V9.232H12.57zm7.13 0v6.07l3.01-3.005v-.227l.06.168 2.347-2.343-.232-.663H19.7z"/><path fill="#7fd13b" d="M5.672 4.695l1.033 1.04v-1.04H5.672zm6.898 0V7.84h3.366V4.695H12.57zm7.13 0V7.84h4.695l-.79-2.24-.902-.905H19.7zM25.63 11.354l-2.343 2.35 4.416 12.534 4.953-4.953v-6.648l-2.974-2.975v11.192l-4.05-11.5zm-2.92 2.927l-3.01 3.017v1.406l3.01 3.016v-7.44z"/><path fill="#60b5cc" d="M29.682 4.695v4.987l2.974 2.974v-7.96h-2.974z"/><path fill="#5a6378" d="M3.344 4.695v26.61h.35l3.01-3.01V19.51h5.866v2.92l3.366-3.366v-2.128L12.57 13.57v1.914H6.705v-7.78l-3.01-3.01h-.35z"/><path fill="#f0ad00" d="M32.656 23.27l-4.207 4.2 3.845 3.835h.36V23.27z"/><path fill="#60b5cc" d="M19.7 20.7v10.605h3.01V23.71L19.7 20.7zm-3.764.364L12.57 24.43v6.875h3.366v-10.24zM29.04 30.04l.446 1.265h.82L29.04 30.04zm-22.335.255l-1.01 1.01h1.01v-1.01z"/></svg>
