<svg role="img" xmlns="http://www.w3.org/2000/svg" labelledby="hnpwa-logo-name" viewBox="0 0 1725 735"><title id="hnpwa-logo-name">HN PWA</title><desc>Logo of Hacker News Progressive Web Application. More info on hnpwa.com</desc><rect width="1637.97" height="641.29" x="43.51" y="46.85" fill="#f27521" fill-rule="evenodd" ry="0"/><g><path fill="#fff" d="M329.85 554.63v-165.9h82.58v165.9h47.3V180.37h-47.3V332.1h-82.58V180.37h-47.3v374.26zM563.1 180.37h-50.4v374.26h42.26V284.05l95.38 270.58h44.58V180.37h-41.87v255.4z"/><path d="M750.05 180.37v374.26h47.3V416.56h23.66c29.08 0 51.96-9.1 69.02-29.34 16.67-19.72 27.14-50.57 27.14-89 0-37.43-10.47-69.3-27.14-88.5-17.06-20.24-39.55-29.35-69-29.35zm47.3 57.15h23.27c17.06 0 27.53 3.54 35.67 13.66 7.74 9.1 12 25.8 12 47.54 0 21.24-4.26 37.42-11.62 46.53-8.53 11.12-19 14.16-36.06 14.16h-23.26zM1000.14 554.63h43.42l43.8-279.68 44.6 279.68h43.8l67.86-374.26h-47.3l-43.42 269.57-43.04-269.57h-43.42l-43.04 269.57-44.6-269.57h-47.68zM1302.5 468.14h73.65l18.23 86.5h48.07l-81.8-374.27h-44.6l-79.47 374.26h48.07zm61.25-56.64h-49.63l24.8-144.64z"/></g></svg>
