<?xml version="1.0" encoding="UTF-8" standalone="no"?>
<svg
   xmlns:dc="http://purl.org/dc/elements/1.1/"
   xmlns:cc="http://creativecommons.org/ns#"
   xmlns:rdf="http://www.w3.org/1999/02/22-rdf-syntax-ns#"
   xmlns:svg="http://www.w3.org/2000/svg"
   xmlns="http://www.w3.org/2000/svg"
   xmlns:sodipodi="http://sodipodi.sourceforge.net/DTD/sodipodi-0.dtd"
   xmlns:inkscape="http://www.inkscape.org/namespaces/inkscape"
   role="img"
   labelledby="hnpwa-logo-name"
   viewBox="0 0 36 36"
   version="1.1"
   id="svg4553"
   sodipodi:docname="hnpwa.svg"
   width="36"
   height="36"
   inkscape:version="0.92.0 r">
  <metadata
     id="metadata4559">
    <rdf:RDF>
      <cc:Work
         rdf:about="">
        <dc:format>image/svg+xml</dc:format>
        <dc:type
           rdf:resource="http://purl.org/dc/dcmitype/StillImage" />
        <dc:title>HN PWA</dc:title>
      </cc:Work>
    </rdf:RDF>
  </metadata>
  <defs
     id="defs4557" />
  <sodipodi:namedview
     pagecolor="#ffffff"
     bordercolor="#666666"
     borderopacity="1"
     objecttolerance="10"
     gridtolerance="10"
     guidetolerance="10"
     inkscape:pageopacity="0"
     inkscape:pageshadow="2"
     inkscape:window-width="1440"
     inkscape:window-height="900"
     id="namedview4555"
     showgrid="false"
     inkscape:zoom="19.333333"
     inkscape:cx="18"
     inkscape:cy="18"
     inkscape:window-x="0"
     inkscape:window-y="0"
     inkscape:window-maximized="0"
     inkscape:current-layer="svg4553" />
  <title
     id="hnpwa-logo-name">HN PWA</title>
  <desc
     id="desc4543">Logo of Hacker News Progressive Web Application. More info on hnpwa.com</desc>
  <rect
     style="fill:#f27521;fill-rule:evenodd;stroke-width:45.49915695"
     width="35.999992"
     height="14.094541"
     x="4.0173099e-06"
     y="10.95273"
     ry="0"
     id="rect4545" />
  <g
     style="stroke-width:45.49916458"
     id="g4551"
     transform="matrix(0.02197842,0,0,0.02197842,-0.956277,9.9230408)">
    <path
       style="fill:#ffffff;stroke-width:45.49916458"
       inkscape:connector-curvature="0"
       d="m 329.85,554.63 v -165.9 h 82.58 v 165.9 h 47.3 V 180.37 h -47.3 V 332.1 H 329.85 V 180.37 h -47.3 V 554.63 Z M 563.1,180.37 h -50.4 v 374.26 h 42.26 V 284.05 l 95.38,270.58 h 44.58 V 180.37 h -41.87 v 255.4 z"
       id="path4547" />
    <path
       style="stroke-width:45.49916458"
       inkscape:connector-curvature="0"
       d="m 750.05,180.37 v 374.26 h 47.3 V 416.56 h 23.66 c 29.08,0 51.96,-9.1 69.02,-29.34 16.67,-19.72 27.14,-50.57 27.14,-89 0,-37.43 -10.47,-69.3 -27.14,-88.5 -17.06,-20.24 -39.55,-29.35 -69,-29.35 z m 47.3,57.15 h 23.27 c 17.06,0 27.53,3.54 35.67,13.66 7.74,9.1 12,25.8 12,47.54 0,21.24 -4.26,37.42 -11.62,46.53 -8.53,11.12 -19,14.16 -36.06,14.16 h -23.26 z m 202.79,317.11 h 43.42 l 43.8,-279.68 44.6,279.68 h 43.8 l 67.86,-374.26 h -47.3 l -43.42,269.57 -43.04,-269.57 h -43.42 L 1023.4,449.94 978.8,180.37 h -47.68 z m 302.36,-86.49 h 73.65 l 18.23,86.5 h 48.07 l -81.8,-374.27 h -44.6 l -79.47,374.26 h 48.07 z m 61.25,-56.64 h -49.63 l 24.8,-144.64 z"
       id="path4549" />
  </g>
</svg>
